<svg width="16" height="18" viewBox="0 0 16 18" fill="none" xmlns="http://www.w3.org/2000/svg">
<path d="M2.14952 10.3538C1.43602 9.90446 1.07927 9.67977 0.956692 9.39263C0.84962 9.14183 0.84962 8.85817 0.956692 8.60737C1.07927 8.32023 1.43602 8.09554 2.14952 7.64615L12.6723 1.01852C13.4724 0.514608 13.8724 0.262653 14.2027 0.288399C14.4906 0.310841 14.7548 0.456644 14.9272 0.688292C15.125 0.954063 15.125 1.42683 15.125 2.37237V15.6276C15.125 16.5732 15.125 17.0459 14.9272 17.3117C14.7548 17.5434 14.4906 17.6892 14.2027 17.7116C13.8724 17.7373 13.4724 17.4854 12.6723 16.9815L2.14952 10.3538Z" fill="white"/>
</svg>
