<svg width="24" height="22" viewBox="0 0 24 22" fill="none" xmlns="http://www.w3.org/2000/svg">
<path d="M2.7991 21.9842H2.85604C4.68405 21.9842 6.28335 20.8631 7.42592 19.4797C8.56832 20.8631 10.1677 22 11.9957 22C13.8238 22 15.4232 20.8605 16.5656 19.4771C17.7081 20.8605 19.3074 21.9842 21.1354 21.9842H21.1923L23.9379 13.8047C24.0518 13.4906 23.9949 13.1186 23.8806 12.8041C23.7662 12.4898 23.4929 12.3039 23.2074 12.178L21.1603 11.442V5.65713C21.1603 4.27366 20.1073 3.12376 18.8505 3.12376H15.4231L14.5663 0H9.42519L8.56832 3.12376H5.1409C3.88423 3.12376 2.83901 4.27366 2.83901 5.65707V11.4419L0.799347 12.1806C0.513813 12.3065 0.232459 12.495 0.118031 12.8093C0.00365707 13.1237 -0.0511461 13.4276 0.0627993 13.8046L2.7991 21.9842ZM5.14256 5.65813H18.8567V10.6244L11.9996 8.17223L5.14256 10.6244V5.65813Z" fill="#60A5FA"/>
</svg>
