<svg width="30" height="30" viewBox="0 0 30 30" fill="none" xmlns="http://www.w3.org/2000/svg">
<path fill-rule="evenodd" clip-rule="evenodd" d="M16.2994 1.66035C23.6834 2.65825 27.0761 6.25043 28.0739 13.6344C28.0739 14.4327 28.0739 15.231 28.8722 15.231C29.6704 15.231 29.6704 14.6323 29.6704 14.0336V13.6344C29.87 6.64957 23.6834 0.26345 16.499 0.0638496C15.9003 0.0638496 14.7029 -0.33525 14.7029 0.86215C14.7029 1.66035 15.7007 1.46085 16.2994 1.66035Z" fill="white"/>
<path fill-rule="evenodd" clip-rule="evenodd" d="M17.6969 3.65604C16.8987 3.45644 16.1004 3.25694 15.9008 4.05514C15.7013 5.25257 16.6991 5.053 17.4974 5.25257C22.0874 6.2504 23.6839 7.84694 24.4822 12.437V13.0357C24.4822 13.4348 24.6818 14.0335 25.4801 13.834C25.8792 13.834 26.0788 13.6344 26.0788 13.2353V12.437C26.0788 8.04651 22.287 4.05514 17.6969 3.65604Z" fill="white"/>
<path fill-rule="evenodd" clip-rule="evenodd" d="M18.0955 7.04929C17.6964 7.04929 17.0977 7.24889 17.0977 7.64799C16.6986 8.44629 17.2973 8.64589 17.896 8.64589C19.6921 9.04499 20.6899 10.0429 20.8895 11.839C20.8895 12.2381 21.089 12.4377 21.089 12.6372C21.2886 12.6372 21.4882 12.8368 21.8873 12.8368L22.0869 12.6372C22.486 12.4377 22.486 12.0385 22.486 11.6394C22.486 9.44419 20.0912 7.04929 18.0955 7.04929ZM27.6748 21.6178C26.6769 20.8195 25.6791 20.2208 24.8808 19.6221C22.8852 18.2251 21.089 18.2251 19.4925 20.2208C18.6942 21.4182 17.6964 21.6177 16.499 21.019C13.1064 19.6221 10.512 17.2273 9.11501 14.0342C8.91544 13.4355 8.71587 13.0364 8.71587 12.4377C8.51631 11.6394 8.91544 10.8411 9.91328 10.2424C10.7115 9.64369 11.5098 9.04499 11.5098 7.84759C11.5098 6.25109 7.51847 1.06229 6.1215 0.46359C5.5228 0.26409 4.9241 0.26409 4.12583 0.46359C0.533616 1.66099 -0.863355 4.65449 0.533616 8.04719C1.33189 9.84329 2.32972 11.6394 3.32756 13.2359C7.71804 20.6199 14.1042 26.0082 22.486 29.4009C23.0847 29.8 23.6834 29.8 23.883 29.9996C26.2778 29.9996 29.0717 27.8043 29.87 25.6091C30.4687 23.4138 28.8722 22.6156 27.6748 21.6178Z" fill="white"/>
</svg>
