<svg width="64" height="64" viewBox="0 0 64 64" fill="none" xmlns="http://www.w3.org/2000/svg">
<path d="M32.0011 0C14.352 0 -0.000610352 14.3567 -0.000610352 32C-0.000610352 49.6433 14.352 64 32.0011 64C49.6435 64 63.9994 49.6433 63.9994 32C63.9994 14.3567 49.6435 0 32.0011 0ZM59.293 32C59.293 38.2433 57.1731 44 53.6399 48.6C52.64 47.82 51.5767 45.71 52.5767 43.5233C53.5866 41.3233 53.8499 36.23 53.6166 34.2467C53.3966 32.2667 52.3667 27.4967 49.5701 27.45C46.777 27.41 44.8604 26.4867 43.2005 23.1733C39.7573 16.28 49.6635 14.9567 46.2203 11.1433C45.257 10.07 40.2773 15.55 39.5473 8.24667C39.5007 7.72333 39.9973 6.94 40.6673 6.12667C51.48 9.76 59.293 19.9833 59.293 32ZM28.2513 4.97667C27.598 6.25 25.8747 6.76667 24.8281 7.72333C22.5482 9.78667 21.5683 9.5 20.3417 11.48C19.1051 13.46 15.1186 16.31 15.1186 17.7433C15.1186 19.1767 17.1318 20.8633 18.1384 20.5367C19.1451 20.2033 21.8016 20.2233 23.3615 20.77C24.9248 21.3233 36.4075 21.8767 32.7477 31.5833C31.5877 34.67 26.5047 34.15 25.1514 39.26C24.9481 40.01 24.2448 43.2133 24.2015 44.26C24.1181 45.88 25.3481 51.9867 23.7848 51.9867C22.2149 51.9867 17.9918 46.5233 17.9918 45.5333C17.9918 44.5433 16.8985 41.0733 16.8985 38.1C16.8985 35.13 11.8388 35.1767 11.8388 31.2267C11.8388 27.6667 14.582 25.8933 13.9653 24.1833C13.362 22.4833 8.54228 22.4267 6.53238 22.2167C8.28977 17.6694 11.2294 13.674 15.0476 10.6432C18.8658 7.61237 23.4241 5.65615 28.2513 4.97667ZM23.4148 57.9C25.0548 57.0333 25.2214 55.9133 26.708 55.8567C28.4079 55.78 29.7912 55.1933 31.7077 54.77C33.4076 54.4 36.4508 52.6733 39.1273 52.4533C41.3872 52.27 45.8437 52.57 47.0436 54.75C43.6028 57.035 39.6868 58.5062 35.5927 59.052C31.4986 59.5978 27.334 59.2038 23.4148 57.9Z" fill="white"/>
</svg>
