<svg width="24" height="20" viewBox="0 0 24 20" fill="none" xmlns="http://www.w3.org/2000/svg">
<path d="M19.5 1.45C19.5 1.33954 19.5895 1.25 19.7 1.25H22.3C22.4105 1.25 22.5 1.33954 22.5 1.45V6.20704C22.5 6.38289 22.2894 6.47314 22.1621 6.35186L19.5621 3.87536C19.5224 3.83761 19.5 3.78527 19.5 3.73054V1.45ZM21.08 10C21.0286 10 20.9793 9.98025 20.9421 9.94484L12.1379 1.56133C12.0607 1.48778 11.9393 1.48778 11.8621 1.56133L3.05793 9.94484C3.02074 9.98025 2.97136 10 2.92001 10H0.5C0.319458 10 0.231332 9.77968 0.362069 9.65517L10.4421 0.0551724C10.4793 0.019755 10.5286 0 10.58 0H13.42C13.4714 0 13.5207 0.019755 13.5579 0.0551724L23.6379 9.65517C23.7687 9.77968 23.6805 10 23.5 10H21.08ZM20.9355 11.5556C20.9766 11.5935 21 11.6468 21 11.7027V19.8C21 19.9105 20.9105 20 20.8 20H15.2C15.0895 20 15 19.9105 15 19.8V13.75C15 13.0588 14.3295 12.5 13.5 12.5H10.5C10.1022 12.5 9.72064 12.6317 9.43934 12.8661C9.15804 13.1005 9 13.4185 9 13.75V19.8C9 19.9105 8.91046 20 8.8 20H3.2C3.08954 20 3 19.9105 3 19.8V11.7015C3 11.6456 3.0234 11.5922 3.06452 11.5543L11.8645 3.45101C11.9411 3.38051 12.0589 3.38051 12.1355 3.45102L20.9355 11.5556Z" fill="#60A5FA"/>
</svg>
