<svg width="16" height="16" viewBox="0 0 16 16" fill="none" xmlns="http://www.w3.org/2000/svg">
<path d="M14.643 0.141295C12.5322 1.19914 3.48157 5.73545 0.980887 6.97181C-0.696187 7.76374 0.285594 8.50627 0.285594 8.50627C0.285594 8.50627 1.71718 9.10016 2.94445 9.54564C4.17155 9.99111 4.82601 9.49623 4.82601 9.49623L10.5935 4.79406C12.6387 3.11119 12.1479 4.49701 11.657 5.09111C10.5935 6.37813 8.83462 8.40725 7.36203 10.0407C6.70757 10.7336 7.03472 11.3275 7.32121 11.6246C8.38465 12.7136 11.289 14.9409 11.4525 15.0893C12.3166 15.8296 14.0163 16.8951 14.2748 14.6439L15.2974 6.873C15.6247 4.24978 15.9519 1.82438 15.9927 1.13147C16.1156 -0.551617 14.643 0.141295 14.643 0.141295Z" fill="white"/>
</svg>
