<svg width="16" height="16" viewBox="0 0 16 16" fill="none" xmlns="http://www.w3.org/2000/svg">
<path d="M8.00166 0C4.13177 0 0 0.531019 0 6.91052C0 10.2858 1.19297 12.3662 3.63712 13.2537V14.8904C3.63846 15.1161 3.70842 15.3361 3.8377 15.5211C3.96699 15.7062 4.14948 15.8475 4.36098 15.9265C4.57247 16.0054 4.80296 16.0181 5.02186 15.963C5.24076 15.9079 5.43773 15.7875 5.58661 15.6178L7.17967 13.821H8.00166C11.8716 13.821 16.0033 13.29 16.0033 6.91052C16.0033 0.531019 11.8716 0 8.00166 0ZM8.00166 5.09197C8.38751 5.09197 8.75756 5.24524 9.03039 5.51808C9.30323 5.79092 9.45651 6.16096 9.45651 6.54681C9.45651 6.64328 9.41819 6.73579 9.34998 6.804C9.28177 6.87221 9.18926 6.91052 9.0928 6.91052C8.99633 6.91052 8.90382 6.87221 8.83561 6.804C8.7674 6.73579 8.72908 6.64328 8.72908 6.54681C8.72908 6.35389 8.65244 6.16887 8.51603 6.03245C8.37961 5.89603 8.19458 5.81939 8.00166 5.81939C7.9052 5.81939 7.81269 5.78107 7.74448 5.71286C7.67627 5.64465 7.63795 5.55214 7.63795 5.45568C7.63795 5.35922 7.67627 5.2667 7.74448 5.19849C7.81269 5.13028 7.9052 5.09197 8.00166 5.09197ZM7.63795 4.00083C7.63795 3.90437 7.67627 3.81186 7.74448 3.74365C7.81269 3.67544 7.9052 3.63712 8.00166 3.63712C8.77336 3.63712 9.51345 3.94367 10.0591 4.48935C10.6048 5.03502 10.9114 5.77511 10.9114 6.54681C10.9114 6.64328 10.873 6.73579 10.8048 6.804C10.7366 6.87221 10.6441 6.91052 10.5476 6.91052C10.4512 6.91052 10.3587 6.87221 10.2905 6.804C10.2223 6.73579 10.1839 6.64328 10.1839 6.54681C10.1839 5.96804 9.95401 5.41297 9.54476 5.00371C9.1355 4.59446 8.58043 4.36454 8.00166 4.36454C7.9052 4.36454 7.81269 4.32622 7.74448 4.25801C7.67627 4.1898 7.63795 4.09729 7.63795 4.00083ZM11.6388 9.82022C11.552 10.3339 11.2843 10.7997 10.8841 11.1332C10.4838 11.4667 9.97745 11.6461 9.45651 11.6388C8.31445 11.6388 6.11763 10.2712 5.20108 9.34739C4.28452 8.42357 2.90969 6.23402 2.90969 5.09197C2.90242 4.57102 3.08175 4.06466 3.41529 3.66442C3.74882 3.26418 4.21454 2.99648 4.72825 2.90969H5.45568C5.52384 2.90956 5.59068 2.92858 5.64856 2.96459C5.70643 3.00061 5.75302 3.05216 5.78302 3.11337C5.78302 3.11337 6.21947 4.00083 6.51044 4.56822C6.80141 5.13561 6.22675 5.94305 5.87758 6.29221C6.08577 6.83375 6.39983 7.32833 6.80141 7.74706C7.22014 8.14864 7.71473 8.4627 8.25626 8.67089C8.59872 8.27703 9.071 8.01895 9.58744 7.94347C9.72168 7.9436 9.85392 7.97603 9.97298 8.03803L11.4278 8.76546C11.489 8.79545 11.5406 8.84204 11.5766 8.89992C11.6126 8.9578 11.6316 9.02463 11.6315 9.0928L11.6388 9.82022ZM12.0025 6.91052C11.906 6.91052 11.8135 6.87221 11.7453 6.804C11.6771 6.73579 11.6388 6.64328 11.6388 6.54681C11.6388 5.58219 11.2556 4.65707 10.5735 3.97498C9.8914 3.29289 8.96628 2.90969 8.00166 2.90969C7.9052 2.90969 7.81269 2.87138 7.74448 2.80317C7.67627 2.73496 7.63795 2.64245 7.63795 2.54598C7.63795 2.44952 7.67627 2.35701 7.74448 2.2888C7.81269 2.22059 7.9052 2.18227 8.00166 2.18227C9.15921 2.18227 10.2693 2.64211 11.0879 3.46062C11.9064 4.27913 12.3662 5.38926 12.3662 6.54681C12.3662 6.64328 12.3279 6.73579 12.2597 6.804C12.1915 6.87221 12.099 6.91052 12.0025 6.91052Z" fill="white"/>
</svg>
