<svg width="24" height="22" viewBox="0 0 24 22" fill="none" xmlns="http://www.w3.org/2000/svg">
<path d="M8.4 9.77778C9.34935 9.77778 10.2774 9.49105 11.0667 8.95385C11.8561 8.41665 12.4713 7.65312 12.8346 6.75979C13.1979 5.86646 13.293 4.88347 13.1078 3.93512C12.9226 2.98676 12.4654 2.11565 11.7941 1.43192C11.1228 0.748201 10.2675 0.28258 9.33643 0.0939408C8.40532 -0.094698 7.44021 0.00211828 6.56312 0.372147C5.68603 0.742175 4.93638 1.3688 4.40895 2.17277C3.88152 2.97674 3.6 3.92196 3.6 4.88889C3.6 6.1855 4.10571 7.42901 5.00589 8.34586C5.90606 9.2627 7.12696 9.77778 8.4 9.77778ZM18 12.2222C18.712 12.2222 19.408 12.0072 20.0001 11.6043C20.5921 11.2014 21.0535 10.6287 21.326 9.95873C21.5984 9.28873 21.6697 8.55149 21.5308 7.84023C21.3919 7.12896 21.0491 6.47563 20.5456 5.96283C20.0421 5.45004 19.4007 5.10082 18.7023 4.95935C18.004 4.81787 17.2802 4.89048 16.6223 5.168C15.9645 5.44552 15.4023 5.91549 15.0067 6.51847C14.6111 7.12145 14.4 7.83036 14.4 8.55556C14.4 9.52802 14.7793 10.4606 15.4544 11.1483C16.1295 11.8359 17.0452 12.2222 18 12.2222ZM22.8 20.7778C23.1183 20.7778 23.4235 20.649 23.6485 20.4198C23.8736 20.1906 24 19.8797 24 19.5556C23.999 18.4133 23.6838 17.2941 23.0899 16.3251C22.4961 15.356 21.6475 14.5759 20.6404 14.0732C19.6333 13.5706 18.5081 13.3654 17.3923 13.4811C16.2766 13.5968 15.215 14.0287 14.328 14.7278C13.1526 13.5353 11.6569 12.7241 10.0294 12.3963C8.40191 12.0685 6.71558 12.239 5.18307 12.8861C3.65056 13.5332 2.3405 14.628 1.41809 16.0324C0.495683 17.4369 0.00224423 19.0881 0 20.7778C0 21.1019 0.126428 21.4128 0.351472 21.642C0.576515 21.8712 0.88174 22 1.2 22H15.6C15.9183 22 16.2235 21.8712 16.4485 21.642C16.6736 21.4128 16.8 21.1019 16.8 20.7778" fill="#60A5FA"/>
</svg>
