<svg width="64" height="64" viewBox="0 0 64 64" fill="none" xmlns="http://www.w3.org/2000/svg">
<path d="M7.46419 55.2593H7.61604C12.4907 55.2593 16.7555 52.4413 19.8023 48.9638C22.8486 52.4413 27.1136 55.299 31.9883 55.299C36.8631 55.299 41.128 52.4347 44.1745 48.9573C47.2212 52.4347 51.4858 55.2593 56.3605 55.2593H56.5122L63.8339 34.6993C64.1376 33.9098 63.9858 32.9747 63.681 32.1843C63.3759 31.3942 62.6472 30.927 61.8858 30.6105L56.4269 28.7604V14.2197C56.4269 10.7422 53.6189 7.85185 50.2676 7.85185H41.1279L38.8432 0H25.1336L22.8486 7.85185H13.7089C10.3579 7.85185 7.57062 10.7422 7.57062 14.2196V28.7603L2.13157 30.617C1.37016 30.9335 0.619884 31.4073 0.314747 32.1973C0.0097521 32.9877 -0.136388 33.7514 0.167463 34.6991L7.46419 55.2593ZM13.7134 14.2222H50.2841V26.7053L31.9988 20.5416L13.7134 26.7053V14.2222Z" fill="white"/>
<path d="M44.1743 54.5195C36.7098 59.8924 27.2666 59.8911 19.8022 54.5182C19.8022 54.5182 11.5684 64 4.56934 64H7.616C11.8808 64 15.9938 62.2628 19.8022 60.2083C27.4185 64.317 36.5581 64.3161 44.1743 60.2072C47.9827 62.2619 52.0956 64 56.3604 64H59.4072C52.6001 64 44.1743 54.5195 44.1743 54.5195Z" fill="white"/>
</svg>
