<svg width="30" height="30" viewBox="0 0 30 30" fill="none" xmlns="http://www.w3.org/2000/svg">
<path d="M15.0008 0C6.72777 0 0 6.72969 0 15C0 23.2703 6.72777 30 15.0008 30C23.2707 30 30 23.2703 30 15C30 6.72969 23.2707 0 15.0008 0ZM27.7939 15C27.7939 17.9266 26.8002 20.625 25.144 22.7812C24.6753 22.4156 24.1769 21.4266 24.6456 20.4016C25.119 19.3703 25.2424 16.9828 25.1331 16.0531C25.0299 15.125 24.5472 12.8891 23.2363 12.8672C21.927 12.8484 21.0286 12.4156 20.2505 10.8625C18.6365 7.63125 23.28 7.01094 21.6661 5.22344C21.2145 4.72031 18.8803 7.28906 18.5381 3.86562C18.5162 3.62031 18.749 3.25312 19.0631 2.87187C24.1316 4.575 27.7939 9.36719 27.7939 15ZM13.2431 2.33281C12.9368 2.92969 12.1291 3.17187 11.6385 3.62031C10.5698 4.5875 10.1104 4.45312 9.53544 5.38125C8.95578 6.30937 7.08713 7.64531 7.08713 8.31719C7.08713 8.98906 8.03083 9.77969 8.50268 9.62656C8.97453 9.47031 10.2198 9.47969 10.951 9.73594C11.6838 9.99531 17.0663 10.2547 15.3508 14.8047C14.807 16.2516 12.4244 16.0078 11.79 18.4031C11.6947 18.7547 11.365 20.2563 11.3447 20.7469C11.3057 21.5063 11.8822 24.3687 11.1494 24.3687C10.4135 24.3687 8.43394 21.8078 8.43394 21.3438C8.43394 20.8797 7.92146 19.2531 7.92146 17.8594C7.92146 16.4672 5.54971 16.4891 5.54971 14.6375C5.54971 12.9687 6.83558 12.1375 6.54653 11.3359C6.26374 10.5391 4.00448 10.5125 3.06234 10.4141C3.88611 8.28255 5.26409 6.40968 7.05387 4.98899C8.84365 3.5683 10.9803 2.65132 13.2431 2.33281ZM10.976 27.1406C11.7447 26.7344 11.8228 26.2094 12.5197 26.1828C13.3165 26.1469 13.9649 25.8719 14.8633 25.6734C15.6601 25.5 17.0866 24.6906 18.3412 24.5875C19.4006 24.5016 21.4895 24.6422 22.052 25.6641C20.4391 26.7352 18.6035 27.4248 16.6844 27.6806C14.7653 27.9365 12.8131 27.7518 10.976 27.1406Z" fill="#60A5FA"/>
</svg>
