<svg width="64" height="64" viewBox="0 0 64 64" fill="none" xmlns="http://www.w3.org/2000/svg">
<path d="M54.1994 19.9945H36.0754V9.06914C36.3714 4.14852 34.9554 -0.00399761 31.9314 2.88813e-06C26.6674 0.00800389 26.8154 4.25253 26.8154 4.25253C25.8794 19.3144 11.9994 23.995 11.9994 23.995V55.999L13.8434 56.247C28.9754 56.247 19.8954 64 44.7594 64C63.6394 64 63.9994 47.3819 63.9994 35.9965C63.9994 24.6111 58.8114 19.9945 54.1994 19.9945ZM3.99939 59.9995C5.06026 59.9995 6.07767 59.578 6.82782 58.8278C7.57796 58.0775 7.99939 57.06 7.99939 55.999V24.119C7.99939 23.058 7.57796 22.0405 6.82782 21.2902C6.07767 20.54 5.06026 20.1185 3.99939 20.1185C2.93852 20.1185 1.92111 20.54 1.17096 21.2902C0.420817 22.0405 -0.000610352 23.058 -0.000610352 24.119L-0.000610352 55.999C-0.000610352 57.06 0.420817 58.0775 1.17096 58.8278C1.92111 59.578 2.93852 59.9995 3.99939 59.9995Z" fill="white"/>
</svg>
