<svg width="60" height="64" viewBox="0 0 60 64" fill="none" xmlns="http://www.w3.org/2000/svg">
<g clip-path="url(#clip0_204_52)">
<path d="M9.45349 42.9621C9.45349 37.489 11.6428 32.2401 15.5397 28.37C19.4366 24.5 24.722 22.3258 30.2331 22.3258C35.7442 22.3258 41.0296 24.5 44.9265 28.37C48.8235 32.2401 51.0128 37.489 51.0128 42.9621C51.0128 48.4352 48.8235 53.6841 44.9265 57.5542C41.0296 61.4243 35.7442 63.5984 30.2331 63.5984C24.722 63.5984 19.4366 61.4243 15.5397 57.5542C11.6428 53.6841 9.45349 48.4352 9.45349 42.9621ZM23.7288 48.4954C22.5362 52.1883 22.5066 52.398 23.1362 52.7744C23.3128 52.8798 23.5461 52.9656 23.6547 52.9656C23.7634 52.9656 25.2362 51.9725 26.9276 50.7587C28.6189 49.5449 30.1053 48.5518 30.2313 48.5518C30.3572 48.5518 31.851 49.5449 33.5498 50.7587C36.8362 53.1054 36.8115 53.0931 37.3967 52.7278C37.9695 52.3698 37.9103 51.9848 36.7177 48.3299C35.9856 46.085 35.6782 44.973 35.7251 44.7364C35.7807 44.4605 36.3584 43.986 38.7547 42.2487C41.7819 40.0528 42.0523 39.799 41.9214 39.2804C41.7239 38.4994 41.7226 38.4982 37.6856 38.4933C34.809 38.4908 33.9461 38.4528 33.7066 38.3216C33.4449 38.1782 33.2313 37.6412 32.2535 34.6778C31.0572 31.0511 30.9152 30.7741 30.2609 30.7741C29.5535 30.7741 29.4547 30.9641 28.2757 34.5711C26.8387 38.9653 27.4881 38.4982 22.8239 38.4982C18.7695 38.4982 18.7708 38.4982 18.5732 39.2804C18.4411 39.8027 18.7239 40.0675 21.7424 42.2524C24.1177 43.9725 24.7128 44.4593 24.7683 44.7302C24.814 44.9595 24.4831 46.1598 23.7288 48.4954Z" fill="white"/>
<path d="M35.7519 16.9024C32.6716 16 32.7383 16.0601 33.479 14.8353C33.784 14.3301 34.5716 12.8674 35.2297 11.5862C37.8346 6.51035 40.9469 2.21058 42.7741 1.16476C43.6309 0.674335 43.6309 0.674335 48.9445 0.685369C56.663 0.702534 58.1667 1.05319 58.8691 2.70958C59.3185 3.76889 59.2 4.22253 58 6.03341C57.4506 6.86223 59.2843 3.70485 58.9695 4.34608C58.2769 5.75604 52.6691 14.9628 51.5 16.4904C51.0358 17.0973 50.1815 18.56 49.279 19.7395C48.3778 20.9202 47.5321 22.0898 47.4 22.3399C47.2679 22.59 47.0494 22.8254 46.9136 22.861C46.7309 22.91 46.4766 22.7396 45.9297 22.2002C43.6778 19.9785 40.3729 18.2584 35.7519 16.9024Z" fill="white"/>
<path d="M23.3585 17.2197C26.4387 16.3173 26.372 16.3774 25.6313 15.1526C25.3264 14.6474 24.5387 13.1848 23.8807 11.9035C21.2758 6.82767 18.1634 2.5279 16.3362 1.48208C15.4795 0.991656 15.4795 0.991656 10.1659 1.00269C2.44735 1.01986 0.943684 1.37051 0.241215 3.02691C-0.208168 4.08622 -0.0896492 4.53986 1.11035 6.35074C1.65973 7.17955 -0.173998 4.02218 0.140818 4.6634C0.83341 6.07336 6.44122 15.2801 7.61035 16.8077C8.07455 17.4146 8.92883 18.8773 9.8313 20.0568C10.7325 21.2375 11.5782 22.4071 11.7103 22.6573C11.8424 22.9074 12.0609 23.1428 12.1967 23.1783C12.3795 23.2274 12.6338 23.0569 13.1807 22.5175C15.4325 20.2959 18.7375 18.5757 23.3585 17.2197Z" fill="white"/>
</g>
<defs>
<clipPath id="clip0_204_52">
<rect width="60" height="64" fill="white"/>
</clipPath>
</defs>
</svg>
