<svg width="30" height="40" viewBox="0 0 30 40" fill="none" xmlns="http://www.w3.org/2000/svg">
<path d="M15 0C11.0224 0 7.20768 1.4811 4.39474 4.1177C1.58181 6.7542 0.001002 10.3302 0 14.0593C0 20.2528 9.53891 33.8552 13.4051 39.1098C14.2744 40.2967 15.7256 40.2967 16.5986 39.1098C20.4648 33.8552 30 20.2528 30 14.0593C29.999 10.3302 28.4182 6.7542 25.6053 4.1177C22.7923 1.4811 18.9776 0 15 0ZM15 6.5619C17.1213 6.5619 19.1557 7.35171 20.656 8.75761C22.1564 10.1635 22.9997 12.0706 23.0007 14.0593C23.0007 15.0444 22.7938 16.0198 22.3917 16.9298C21.9896 17.8399 21.4003 18.6668 20.6574 19.3633C19.9144 20.0598 19.0325 20.6124 18.0618 20.9894C17.0911 21.3663 16.0507 21.5603 15 21.5603C12.8787 21.5593 10.8447 20.7686 9.34505 19.362C7.84544 17.9554 7.00301 16.0481 7.00301 14.0593C7.00401 12.0712 7.84687 10.1647 9.34638 8.75891C10.8459 7.35311 12.8794 6.5629 15 6.5619Z" fill="white"/>
</svg>
