<svg width="30" height="30" viewBox="0 0 30 30" fill="none" xmlns="http://www.w3.org/2000/svg">
<circle cx="15" cy="15" r="15" fill="#D9D9D9"/>
<path d="M8.05682 20V11.2727H11.0057C11.6875 11.2727 12.2472 11.3892 12.6847 11.6222C13.1222 11.8523 13.446 12.169 13.6562 12.5724C13.8665 12.9759 13.9716 13.4347 13.9716 13.9489C13.9716 14.4631 13.8665 14.919 13.6562 15.3168C13.446 15.7145 13.1236 16.027 12.6889 16.2543C12.2543 16.4787 11.6989 16.5909 11.0227 16.5909H8.63636V15.6364H10.9886C11.4545 15.6364 11.8295 15.5682 12.1136 15.4318C12.4006 15.2955 12.608 15.1023 12.7358 14.8523C12.8665 14.5994 12.9318 14.2983 12.9318 13.9489C12.9318 13.5994 12.8665 13.294 12.7358 13.0327C12.6051 12.7713 12.3963 12.5696 12.1094 12.4276C11.8224 12.2827 11.4432 12.2102 10.9716 12.2102H9.11364V20H8.05682ZM12.1648 16.0795L14.3125 20H13.0852L10.9716 16.0795H12.1648ZM21.4599 11.2727H22.5167V17.0511C22.5167 17.6477 22.3761 18.1804 22.0948 18.6491C21.8164 19.1151 21.4229 19.483 20.9144 19.7528C20.4059 20.0199 19.8093 20.1534 19.1246 20.1534C18.44 20.1534 17.8434 20.0199 17.3349 19.7528C16.8263 19.483 16.4315 19.1151 16.1502 18.6491C15.8718 18.1804 15.7326 17.6477 15.7326 17.0511V11.2727H16.7894V16.9659C16.7894 17.392 16.8832 17.7713 17.0707 18.1037C17.2582 18.4332 17.5252 18.6932 17.8718 18.8835C18.2212 19.071 18.6388 19.1648 19.1246 19.1648C19.6104 19.1648 20.0281 19.071 20.3775 18.8835C20.7269 18.6932 20.994 18.4332 21.1786 18.1037C21.3661 17.7713 21.4599 17.392 21.4599 16.9659V11.2727Z" fill="black"/>
</svg>
